<?xml version="1.0" encoding="utf-8"?>
<!-- Generator: Adobe Illustrator 28.0.0, SVG Export Plug-In . SVG Version: 6.00 Build 0)  -->
<svg version="1.1" id="Capa_1" xmlns="http://www.w3.org/2000/svg" xmlns:xlink="http://www.w3.org/1999/xlink" x="0px" y="0px"
	 viewBox="0 0 530 56.2" style="enable-background:new 0 0 530 56.2;" xml:space="preserve">
<style type="text/css">
	.st0{fill:#FFFFFF;}
</style>
<g>
	<path class="st0" d="M520.1,46.3c-1.6,2.9-3.9,5.2-6.6,7c-2.7,1.8-6.1,2.7-10.1,2.7c-2.7,0-5.2-0.5-7.5-1.4c-2.3-1-4.2-2.3-5.9-4
		c-1.7-1.7-3-3.7-4-5.9c-0.9-2.3-1.4-4.8-1.4-7.6c0-2.6,0.5-5,1.4-7.2c0.9-2.3,2.2-4.3,3.8-6c1.6-1.7,3.6-3.1,5.8-4.1
		c2.3-1,4.7-1.5,7.4-1.5c2.8,0,5.4,0.5,7.6,1.4c2.2,0.9,4.1,2.2,5.6,3.9c1.5,1.6,2.6,3.6,3.4,5.8c0.8,2.3,1.2,4.7,1.2,7.4
		c0,0.3,0,0.6,0,0.9c0,0.3-0.1,0.6-0.1,0.8c0,0.2-0.1,0.5-0.1,0.8h-26.6c0.2,1.4,0.6,2.7,1.2,3.8c0.6,1,1.4,1.9,2.2,2.6
		c0.9,0.7,1.9,1.2,3,1.5c1.1,0.3,2.1,0.4,3.2,0.4c2.2,0,3.9-0.5,5.3-1.4c1.4-1,2.6-2.3,3.4-3.8L520.1,46.3z M511.5,32.6
		c0-0.6-0.3-1.3-0.6-2.1c-0.3-0.8-0.9-1.5-1.6-2.2c-0.7-0.7-1.5-1.2-2.6-1.7c-1-0.4-2.2-0.6-3.7-0.6c-2,0-3.8,0.6-5.3,1.7
		c-1.5,1.2-2.6,2.8-3.2,4.8H511.5z"/>
	<path class="st0" d="M443.7,19.5h10.8l8.8,22.5h0.5l8.9-22.5h10.7l-15.2,35.4h-9.3L443.7,19.5z"/>
	<path class="st0" d="M434,14.3c-0.8,0-1.6-0.1-2.4-0.4c-0.7-0.3-1.4-0.8-1.9-1.3c-0.5-0.6-1-1.2-1.3-1.9c-0.3-0.7-0.4-1.5-0.4-2.4
		s0.1-1.7,0.4-2.4c0.3-0.7,0.8-1.3,1.3-1.9c0.6-0.6,1.2-1,1.9-1.3c0.8-0.3,1.6-0.5,2.4-0.5c1.7,0,3.1,0.6,4.3,1.8
		c1.2,1.2,1.8,2.6,1.8,4.3s-0.6,3.1-1.8,4.3C437.1,13.8,435.7,14.3,434,14.3z M429.3,54.8V19.5h9.5v35.4H429.3z"/>
	<path class="st0" d="M403.3,27.6h-6.2v-8.1h6.2V8.6h9.5v10.8h8.7v8.1h-8.7v13.7c0,0.8,0.1,1.6,0.2,2.3c0.2,0.7,0.5,1.3,1,1.7
		c0.7,0.8,1.6,1.2,2.9,1.2c0.8,0,1.5-0.1,1.9-0.2c0.5-0.2,0.9-0.4,1.4-0.7l2.7,8.3c-1.1,0.5-2.3,0.9-3.6,1.2
		c-1.3,0.3-2.6,0.4-4.2,0.4c-1.8,0-3.4-0.3-4.8-0.8c-1.4-0.6-2.6-1.3-3.5-2.3c-2.3-2.2-3.4-5.2-3.4-9.2V27.6z"/>
	<path class="st0" d="M383.3,51.1h-0.6c-1.1,1.3-2.5,2.5-4,3.5c-1.5,1-3.5,1.4-6,1.4c-1.8,0-3.6-0.3-5.2-0.9c-1.6-0.6-3-1.4-4.2-2.5
		c-1.2-1.1-2.1-2.3-2.8-3.8c-0.7-1.5-1-3.1-1-4.9c0-1.8,0.4-3.5,1.1-4.9c0.7-1.5,1.7-2.8,3-3.8c1.3-1.1,2.8-1.9,4.5-2.4
		c1.8-0.6,3.7-0.9,5.8-0.9c2.3,0,4.2,0.2,5.7,0.6c1.5,0.3,2.7,0.7,3.7,1.1v-1.1c0-1.9-0.7-3.4-2.2-4.6c-1.5-1.3-3.3-1.9-5.6-1.9
		c-3.3,0-6,1.4-8.3,4.1l-6.9-4.7c3.8-4.7,8.9-7.1,15.4-7.1c5.5,0,9.7,1.3,12.6,3.9c2.9,2.6,4.3,6.4,4.3,11.4v21.2h-9.3V51.1z
		 M383.3,40.5c-1.1-0.5-2.3-0.9-3.5-1.2c-1.2-0.3-2.4-0.5-3.8-0.5c-2.3,0-4,0.5-5.3,1.5c-1.2,1-1.8,2.2-1.8,3.6
		c0,1.4,0.6,2.6,1.7,3.5c1.2,0.9,2.6,1.3,4.1,1.3c1.3,0,2.4-0.2,3.5-0.6c1.1-0.5,1.9-1.1,2.7-1.8c0.8-0.8,1.3-1.6,1.7-2.6
		C383.1,42.6,383.3,41.5,383.3,40.5z"/>
	<path class="st0" d="M354.5,46.3c-1.6,2.9-3.9,5.2-6.6,7c-2.7,1.8-6.1,2.7-10.1,2.7c-2.7,0-5.2-0.5-7.5-1.4c-2.3-1-4.2-2.3-5.9-4
		c-1.7-1.7-3-3.7-4-5.9c-0.9-2.3-1.4-4.8-1.4-7.6c0-2.6,0.5-5,1.4-7.2c0.9-2.3,2.2-4.3,3.8-6c1.6-1.7,3.6-3.1,5.8-4.1
		c2.3-1,4.7-1.5,7.4-1.5c2.8,0,5.4,0.5,7.6,1.4c2.2,0.9,4.1,2.2,5.6,3.9c1.5,1.6,2.6,3.6,3.4,5.8c0.8,2.3,1.2,4.7,1.2,7.4
		c0,0.3,0,0.6,0,0.9c0,0.3-0.1,0.6-0.1,0.8c0,0.2-0.1,0.5-0.1,0.8h-26.6c0.2,1.4,0.6,2.7,1.2,3.8c0.6,1,1.4,1.9,2.2,2.6
		c0.9,0.7,1.9,1.2,3,1.5c1.1,0.3,2.1,0.4,3.2,0.4c2.2,0,3.9-0.5,5.3-1.4c1.4-1,2.6-2.3,3.4-3.8L354.5,46.3z M345.9,32.6
		c0-0.6-0.3-1.3-0.7-2.1c-0.3-0.8-0.9-1.5-1.6-2.2c-0.7-0.7-1.5-1.2-2.6-1.7c-1-0.4-2.2-0.6-3.7-0.6c-2,0-3.8,0.6-5.3,1.7
		c-1.5,1.2-2.6,2.8-3.2,4.8H345.9z"/>
	<path class="st0" d="M293.8,19.5h8.9v4.9h0.6c0.4-0.9,1-1.7,1.7-2.4c0.7-0.7,1.5-1.3,2.4-1.9c0.9-0.5,1.9-0.9,2.9-1.2
		c1.1-0.3,2.1-0.4,3.1-0.4c1.3,0,2.3,0.1,3.2,0.4c0.9,0.2,1.7,0.6,2.3,0.9l-2.5,8.6c-0.6-0.3-1.2-0.5-1.9-0.6
		c-0.7-0.2-1.5-0.3-2.5-0.3c-1.3,0-2.5,0.3-3.5,0.8c-1.1,0.5-2,1.2-2.7,2.1c-0.7,0.9-1.3,2-1.7,3.2c-0.4,1.2-0.6,2.5-0.6,4v17.3
		h-9.5V19.5z"/>
	<path class="st0" d="M287.8,46.5c-2.5,3.1-5.6,5.4-9,7.1c-3.5,1.6-7.3,2.4-11.6,2.4c-3.9,0-7.4-0.7-10.8-2.1
		c-3.3-1.4-6.1-3.3-8.5-5.7c-2.4-2.4-4.3-5.2-5.7-8.5c-1.4-3.3-2.1-6.9-2.1-10.7c0-3.8,0.7-7.3,2.1-10.6c1.4-3.3,3.3-6.2,5.7-8.6
		c2.4-2.4,5.2-4.3,8.5-5.7c3.3-1.4,6.9-2.1,10.8-2.1c4.1,0,7.8,0.7,10.9,2.2c3.2,1.4,6,3.5,8.4,6.3l-6.9,6.6
		c-1.5-1.8-3.3-3.2-5.3-4.3c-2-1.1-4.3-1.6-7.1-1.6c-2.4,0-4.7,0.4-6.8,1.3c-2.1,0.8-4,2-5.6,3.5c-1.5,1.5-2.8,3.4-3.7,5.6
		c-0.9,2.2-1.4,4.6-1.4,7.3s0.5,5.1,1.4,7.4c0.9,2.2,2.1,4,3.7,5.6c1.6,1.5,3.4,2.7,5.6,3.6c2.1,0.8,4.4,1.2,6.8,1.2
		c2.9,0,5.4-0.6,7.7-1.7c2.3-1.2,4.3-2.9,6-5.1L287.8,46.5z"/>
	<path class="st0" d="M194.5,24.1h0.6c1.1-1.8,2.6-3.2,4.5-4.2c1.9-1.1,4-1.6,6.4-1.6c2.2,0,4.2,0.4,5.8,1.1
		c1.7,0.7,3.1,1.8,4.1,3.1c1.1,1.3,1.9,2.9,2.5,4.8c0.6,1.8,0.9,3.9,0.9,6.1v21.4h-9.5V34.6c0-2.6-0.6-4.4-1.7-5.6
		c-1.1-1.3-2.7-1.9-4.9-1.9c-1.3,0-2.5,0.3-3.5,0.9c-1,0.5-1.8,1.3-2.5,2.2c-0.7,0.9-1.2,2-1.6,3.3c-0.3,1.3-0.5,2.6-0.5,4v17.3
		h-9.5V19.5h8.9V24.1z"/>
	<path class="st0" d="M168.8,51.1h-0.6c-1.1,1.3-2.5,2.5-4,3.5c-1.5,1-3.5,1.4-6,1.4c-1.8,0-3.6-0.3-5.2-0.9c-1.6-0.6-3-1.4-4.2-2.5
		c-1.2-1.1-2.1-2.3-2.8-3.8c-0.7-1.5-1-3.1-1-4.9c0-1.8,0.4-3.5,1.1-4.9c0.7-1.5,1.7-2.8,3-3.8c1.3-1.1,2.8-1.9,4.5-2.4
		c1.8-0.6,3.7-0.9,5.8-0.9c2.3,0,4.2,0.2,5.7,0.6c1.5,0.3,2.7,0.7,3.7,1.1v-1.1c0-1.9-0.7-3.4-2.2-4.6c-1.5-1.3-3.3-1.9-5.6-1.9
		c-3.3,0-6,1.4-8.3,4.1l-6.9-4.7c3.8-4.7,8.9-7.1,15.4-7.1c5.5,0,9.7,1.3,12.6,3.9c2.9,2.6,4.3,6.4,4.3,11.4v21.2h-9.3V51.1z
		 M168.8,40.5c-1.1-0.5-2.3-0.9-3.5-1.2c-1.2-0.3-2.4-0.5-3.8-0.5c-2.3,0-4,0.5-5.3,1.5c-1.2,1-1.8,2.2-1.8,3.6
		c0,1.4,0.6,2.6,1.7,3.5c1.2,0.9,2.6,1.3,4.1,1.3c1.3,0,2.4-0.2,3.5-0.6c1.1-0.5,1.9-1.1,2.7-1.8c0.8-0.8,1.3-1.6,1.7-2.6
		C168.5,42.6,168.8,41.5,168.8,40.5z"/>
	<path class="st0" d="M133.9,14.3c-0.8,0-1.6-0.1-2.4-0.4c-0.7-0.3-1.4-0.8-1.9-1.3c-0.5-0.6-1-1.2-1.3-1.9
		c-0.3-0.7-0.4-1.5-0.4-2.4s0.1-1.7,0.4-2.4c0.3-0.7,0.8-1.3,1.3-1.9c0.6-0.6,1.2-1,1.9-1.3c0.8-0.3,1.6-0.5,2.4-0.5
		c1.7,0,3.1,0.6,4.3,1.8c1.2,1.2,1.8,2.6,1.8,4.3s-0.6,3.1-1.8,4.3C137,13.8,135.6,14.3,133.9,14.3z M129.2,54.8V19.5h9.5v35.4
		H129.2z"/>
	<path class="st0" d="M85.7,3.2h9.5v15.5l-0.6,5.1h0.6c0.9-1.5,2.2-2.8,4-3.8c1.8-1.1,4.1-1.6,6.8-1.6c2.3,0,4.4,0.5,6.4,1.4
		c2.1,0.9,3.9,2.2,5.4,3.9c1.6,1.6,2.8,3.6,3.8,5.9c0.9,2.3,1.4,4.8,1.4,7.6s-0.5,5.3-1.4,7.6c-0.9,2.3-2.2,4.3-3.8,6
		c-1.5,1.6-3.3,2.9-5.4,3.9c-2,0.9-4.2,1.4-6.4,1.4c-2.7,0-5-0.5-6.8-1.6c-1.8-1.1-3.2-2.3-4-3.8h-0.6v4.3h-8.9V3.2z M104,47.3
		c1.3,0,2.4-0.2,3.5-0.7c1.2-0.5,2.2-1.2,3-2c0.9-0.9,1.6-1.9,2.1-3.2c0.5-1.3,0.8-2.6,0.8-4.2s-0.3-2.9-0.8-4.2
		c-0.5-1.3-1.2-2.3-2.1-3.2c-0.9-0.9-1.9-1.5-3-2c-1.1-0.5-2.3-0.7-3.5-0.7c-1.3,0-2.5,0.2-3.6,0.7c-1.1,0.4-2.1,1.1-3,1.9
		c-0.9,0.9-1.6,1.9-2.1,3.2c-0.5,1.3-0.8,2.7-0.8,4.3c0,1.6,0.3,3,0.8,4.3c0.5,1.3,1.2,2.3,2.1,3.2c0.9,0.9,1.9,1.5,3,2
		C101.6,47,102.8,47.3,104,47.3z"/>
	<path class="st0" d="M68.9,51.1h-0.6c-1.1,1.3-2.5,2.5-4,3.5c-1.5,1-3.5,1.4-6,1.4c-1.8,0-3.6-0.3-5.2-0.9c-1.6-0.6-3-1.4-4.2-2.5
		c-1.2-1.1-2.1-2.3-2.8-3.8c-0.7-1.5-1-3.1-1-4.9c0-1.8,0.4-3.5,1.1-4.9c0.7-1.5,1.7-2.8,3-3.8c1.3-1.1,2.8-1.9,4.5-2.4
		c1.8-0.6,3.7-0.9,5.8-0.9c2.3,0,4.2,0.2,5.7,0.6c1.5,0.3,2.7,0.7,3.7,1.1v-1.1c0-1.9-0.7-3.4-2.2-4.6c-1.5-1.3-3.3-1.9-5.6-1.9
		c-3.3,0-6,1.4-8.3,4.1l-6.9-4.7c3.8-4.7,8.9-7.1,15.4-7.1c5.5,0,9.7,1.3,12.6,3.9c2.9,2.6,4.3,6.4,4.3,11.4v21.2h-9.3V51.1z
		 M68.9,40.5c-1.1-0.5-2.3-0.9-3.5-1.2c-1.2-0.3-2.4-0.5-3.8-0.5c-2.3,0-4,0.5-5.3,1.5c-1.2,1-1.8,2.2-1.8,3.6
		c0,1.4,0.6,2.6,1.7,3.5c1.2,0.9,2.6,1.3,4.1,1.3c1.3,0,2.4-0.2,3.5-0.6c1.1-0.5,1.9-1.1,2.7-1.8c0.8-0.8,1.3-1.6,1.7-2.6
		C68.6,42.6,68.9,41.5,68.9,40.5z"/>
	<path class="st0" d="M9.4,3.2h32.8v9.2h-23V25h20.7v9.2H19.1v20.6H9.4V3.2z"/>
</g>
</svg>
