<?xml version="1.0" encoding="utf-8"?>
<!-- Generator: Adobe Illustrator 27.8.1, SVG Export Plug-In . SVG Version: 6.00 Build 0)  -->
<svg version="1.1" id="Capa_1" xmlns="http://www.w3.org/2000/svg" xmlns:xlink="http://www.w3.org/1999/xlink" x="0px" y="0px"
	 viewBox="0 0 529.99 56.22" style="enable-background:new 0 0 529.99 56.22;" xml:space="preserve">
<style type="text/css">
	.st0{fill:#FFFFFF;}
</style>
<path class="st0" d="M8.9,4.47h32.69v9.22H18.62v12.53h20.66v9.22H18.62v20.59H8.9V4.47z"/>
<path class="st0" d="M68.23,51.13h-0.58c-1.1,1.34-2.44,2.5-4,3.46c-1.56,0.96-3.56,1.44-6.01,1.44c-1.82,0-3.54-0.3-5.15-0.9
	c-1.61-0.6-3.01-1.43-4.21-2.48s-2.14-2.33-2.81-3.82c-0.67-1.49-1.01-3.12-1.01-4.9c0-1.82,0.36-3.47,1.08-4.93
	s1.73-2.72,3.02-3.78c1.3-1.06,2.82-1.86,4.57-2.41s3.66-0.83,5.72-0.83c2.3,0,4.2,0.18,5.69,0.54c1.49,0.36,2.71,0.73,3.67,1.12
	v-1.08c0-1.87-0.74-3.42-2.23-4.64c-1.49-1.22-3.34-1.84-5.54-1.84c-3.26,0-6.02,1.37-8.28,4.1l-6.83-4.68
	c3.74-4.7,8.86-7.06,15.34-7.06c5.47,0,9.65,1.29,12.53,3.85c2.88,2.57,4.32,6.37,4.32,11.41v21.17h-9.29V51.13z M68.23,40.55
	c-1.1-0.53-2.24-0.95-3.42-1.26c-1.18-0.31-2.46-0.47-3.85-0.47c-2.26,0-4,0.49-5.22,1.48c-1.22,0.98-1.84,2.2-1.84,3.64
	s0.59,2.59,1.76,3.46c1.18,0.86,2.53,1.3,4.07,1.3c1.25,0,2.4-0.23,3.46-0.68c1.06-0.46,1.96-1.06,2.7-1.8
	c0.74-0.74,1.32-1.61,1.73-2.59C68.02,42.62,68.23,41.6,68.23,40.55z"/>
<path class="st0" d="M85,3.33h9.43v15.48l-0.58,5.04h0.58c0.86-1.49,2.21-2.76,4.03-3.82c1.82-1.05,4.08-1.58,6.77-1.58
	c2.26,0,4.4,0.47,6.44,1.4c2.04,0.94,3.84,2.23,5.4,3.89c1.56,1.66,2.8,3.64,3.71,5.94c0.91,2.3,1.37,4.82,1.37,7.56
	c0,2.74-0.46,5.26-1.37,7.56c-0.91,2.3-2.15,4.28-3.71,5.94s-3.36,2.95-5.4,3.89s-4.19,1.4-6.44,1.4c-2.69,0-4.94-0.53-6.77-1.58
	c-1.82-1.06-3.17-2.33-4.03-3.82h-0.58v4.25h-8.86V3.33H85z M103.29,47.33c1.25,0,2.44-0.24,3.56-0.72
	c1.13-0.48,2.12-1.15,2.99-2.02c0.86-0.86,1.56-1.92,2.09-3.17c0.53-1.25,0.79-2.64,0.79-4.18s-0.26-2.93-0.79-4.18
	c-0.53-1.25-1.22-2.3-2.09-3.17c-0.86-0.86-1.86-1.54-2.99-2.02c-1.13-0.48-2.32-0.72-3.56-0.72c-1.25,0-2.44,0.23-3.56,0.68
	c-1.13,0.46-2.12,1.12-2.99,1.98c-0.86,0.86-1.56,1.92-2.09,3.17s-0.79,2.66-0.79,4.25s0.26,3,0.79,4.25s1.22,2.3,2.09,3.17
	c0.86,0.86,1.86,1.52,2.99,1.98C100.85,47.1,102.04,47.33,103.29,47.33z"/>
<path class="st0" d="M133.1,15.99c-0.82,0-1.6-0.16-2.34-0.47c-0.75-0.31-1.39-0.74-1.94-1.3c-0.55-0.55-0.98-1.19-1.3-1.91
	c-0.31-0.72-0.47-1.51-0.47-2.38c0-0.87,0.15-1.66,0.47-2.38c0.31-0.72,0.74-1.36,1.3-1.91c0.55-0.55,1.2-0.98,1.94-1.3
	c0.74-0.31,1.52-0.47,2.34-0.47c1.68,0,3.12,0.59,4.32,1.76c1.2,1.18,1.8,2.6,1.8,4.28s-0.6,3.11-1.8,4.28
	C136.22,15.41,134.78,15.99,133.1,15.99z M128.42,56.03V20.75h9.43v35.28H128.42z"/>
<path class="st0" d="M167.87,51.13h-0.58c-1.1,1.34-2.44,2.5-4,3.46s-3.56,1.44-6.01,1.44c-1.82,0-3.54-0.3-5.15-0.9
	c-1.61-0.6-3.01-1.43-4.21-2.48c-1.2-1.05-2.14-2.33-2.81-3.82c-0.67-1.49-1.01-3.12-1.01-4.9c0-1.82,0.36-3.47,1.08-4.93
	s1.73-2.72,3.02-3.78c1.3-1.06,2.82-1.86,4.57-2.41s3.66-0.83,5.72-0.83c2.3,0,4.2,0.18,5.69,0.54s2.71,0.73,3.67,1.12v-1.08
	c0-1.87-0.74-3.42-2.23-4.64c-1.49-1.22-3.34-1.84-5.54-1.84c-3.26,0-6.02,1.37-8.28,4.1l-6.84-4.68c3.74-4.7,8.86-7.06,15.34-7.06
	c5.47,0,9.65,1.29,12.53,3.85c2.88,2.57,4.32,6.37,4.32,11.41v21.17h-9.29L167.87,51.13L167.87,51.13z M167.87,40.55
	c-1.1-0.53-2.24-0.95-3.42-1.26c-1.18-0.31-2.46-0.47-3.85-0.47c-2.26,0-4,0.49-5.22,1.48c-1.22,0.98-1.84,2.2-1.84,3.64
	s0.59,2.59,1.76,3.46c1.18,0.86,2.53,1.3,4.07,1.3c1.25,0,2.4-0.23,3.46-0.68c1.06-0.46,1.96-1.06,2.7-1.8
	c0.74-0.74,1.32-1.61,1.73-2.59C167.67,42.62,167.87,41.6,167.87,40.55z M157.22,12.54l3.02-9.79h11.02l-6.48,9.79H157.22z"/>
<path class="st0" d="M193.5,25.36h0.58c1.1-1.78,2.59-3.18,4.46-4.21c1.87-1.03,4.01-1.55,6.41-1.55c2.21,0,4.15,0.36,5.83,1.08
	c1.68,0.72,3.06,1.74,4.14,3.06s1.9,2.9,2.45,4.75s0.83,3.9,0.83,6.16v21.38h-9.43V35.8c0-2.54-0.56-4.43-1.69-5.65
	s-2.77-1.84-4.93-1.84c-1.3,0-2.44,0.28-3.42,0.83s-1.82,1.3-2.52,2.23c-0.7,0.94-1.22,2.04-1.58,3.31s-0.54,2.63-0.54,4.07v17.28
	h-9.43V20.76h8.86v4.6H193.5z"/>
<path class="st0" d="M286.6,46.6c-2.54,3.07-5.54,5.41-9,7.02s-7.32,2.41-11.59,2.41c-3.84,0-7.4-0.7-10.69-2.09
	c-3.29-1.39-6.13-3.29-8.53-5.69c-2.4-2.4-4.3-5.24-5.69-8.53s-2.09-6.83-2.09-10.62s0.7-7.33,2.09-10.62s3.29-6.13,5.69-8.53
	c2.4-2.4,5.24-4.29,8.53-5.69c3.29-1.39,6.85-2.09,10.69-2.09c4.13,0,7.76,0.72,10.91,2.16c3.14,1.44,5.94,3.53,8.39,6.26
	l-6.84,6.62c-1.54-1.78-3.3-3.19-5.29-4.25c-1.99-1.06-4.36-1.58-7.09-1.58c-2.4,0-4.66,0.42-6.77,1.26
	c-2.11,0.84-3.95,2.03-5.51,3.56c-1.56,1.54-2.8,3.4-3.71,5.58s-1.37,4.62-1.37,7.31s0.46,5.12,1.37,7.31
	c0.91,2.18,2.15,4.04,3.71,5.58c1.56,1.54,3.4,2.73,5.51,3.56c2.11,0.84,4.37,1.26,6.77,1.26c2.88,0,5.44-0.59,7.67-1.76
	c2.23-1.18,4.21-2.84,5.94-5L286.6,46.6z"/>
<path class="st0" d="M292.5,20.74h8.86v4.9h0.58c0.43-0.86,1.01-1.66,1.73-2.38s1.52-1.35,2.41-1.88c0.89-0.53,1.85-0.97,2.88-1.3
	s2.05-0.49,3.06-0.49c1.25,0,2.32,0.13,3.2,0.4c0.89,0.27,1.64,0.61,2.27,1.04l-2.52,8.42c-0.58-0.29-1.21-0.51-1.91-0.68
	s-1.55-0.25-2.56-0.25c-1.3,0-2.47,0.25-3.53,0.76s-1.96,1.22-2.7,2.14c-0.75,0.92-1.32,1.99-1.73,3.22
	c-0.41,1.23-0.61,2.57-0.61,4.02v17.37h-9.43V20.74z"/>
<path class="st0" d="M353.06,46.39c-1.63,2.88-3.83,5.21-6.59,6.98c-2.76,1.78-6.13,2.66-10.12,2.66c-2.69,0-5.17-0.47-7.45-1.4
	c-2.28-0.94-4.26-2.24-5.94-3.92c-1.68-1.68-2.99-3.66-3.92-5.94c-0.94-2.28-1.4-4.79-1.4-7.52c0-2.54,0.46-4.96,1.37-7.24
	s2.18-4.27,3.82-5.98c1.63-1.7,3.56-3.06,5.8-4.07c2.23-1.01,4.69-1.51,7.38-1.51c2.83,0,5.35,0.47,7.56,1.4
	c2.21,0.94,4.06,2.23,5.54,3.89c1.49,1.66,2.62,3.61,3.38,5.87c0.77,2.26,1.15,4.71,1.15,7.34c0,0.34,0,0.62,0,0.86
	c-0.05,0.29-0.07,0.55-0.07,0.79c-0.05,0.24-0.07,0.5-0.07,0.79h-26.57c0.19,1.44,0.59,2.68,1.19,3.71s1.34,1.9,2.23,2.59
	c0.89,0.7,1.86,1.2,2.92,1.51c1.06,0.31,2.14,0.47,3.24,0.47c2.16,0,3.95-0.49,5.36-1.48c1.42-0.98,2.53-2.22,3.35-3.71
	L353.06,46.39z M344.49,32.71c-0.05-0.62-0.25-1.32-0.61-2.09s-0.89-1.49-1.58-2.16c-0.7-0.67-1.56-1.22-2.59-1.66
	c-1.03-0.43-2.27-0.65-3.71-0.65c-2.02,0-3.79,0.58-5.33,1.73c-1.54,1.15-2.62,2.76-3.24,4.82L344.49,32.71L344.49,32.71z"/>
<path class="st0" d="M381.78,51.13h-0.58c-1.1,1.34-2.44,2.5-4,3.46s-3.56,1.44-6.01,1.44c-1.82,0-3.54-0.3-5.15-0.9
	c-1.61-0.6-3.01-1.43-4.21-2.48c-1.2-1.05-2.14-2.33-2.81-3.82c-0.67-1.49-1.01-3.12-1.01-4.9c0-1.82,0.36-3.47,1.08-4.93
	s1.73-2.72,3.02-3.78c1.3-1.06,2.82-1.86,4.57-2.41s3.66-0.83,5.72-0.83c2.3,0,4.2,0.18,5.69,0.54s2.71,0.73,3.67,1.12v-1.08
	c0-1.87-0.74-3.42-2.23-4.64c-1.49-1.22-3.34-1.84-5.54-1.84c-3.26,0-6.02,1.37-8.28,4.1l-6.84-4.68c3.74-4.7,8.86-7.06,15.34-7.06
	c5.47,0,9.65,1.29,12.53,3.85c2.88,2.57,4.32,6.37,4.32,11.41v21.17h-9.29v-3.74H381.78z M381.78,40.55
	c-1.1-0.53-2.24-0.95-3.42-1.26c-1.18-0.31-2.46-0.47-3.85-0.47c-2.26,0-4,0.49-5.22,1.48c-1.22,0.98-1.84,2.2-1.84,3.64
	s0.59,2.59,1.76,3.46c1.18,0.86,2.53,1.3,4.07,1.3c1.25,0,2.4-0.23,3.46-0.68c1.06-0.46,1.96-1.06,2.7-1.8
	c0.74-0.74,1.32-1.61,1.73-2.59C381.58,42.62,381.78,41.6,381.78,40.55z"/>
<path class="st0" d="M401.73,27.64h-6.2v-8.06h6.19V8.78h9.43v10.8h8.64v8.06h-8.64v14.1c0,0.84,0.08,1.62,0.25,2.34
	s0.49,1.32,0.97,1.82c0.67,0.79,1.63,1.19,2.88,1.19c0.82,0,1.46-0.08,1.94-0.25s0.94-0.4,1.37-0.68l2.66,8.28
	c-1.1,0.53-2.29,0.92-3.56,1.19c-1.27,0.26-2.68,0.4-4.21,0.4c-1.78,0-3.37-0.28-4.79-0.85c-1.42-0.56-2.6-1.33-3.56-2.32
	c-2.26-2.2-3.38-5.34-3.38-9.41V27.64H401.73z"/>
<path class="st0" d="M432.32,15.99c-0.82,0-1.6-0.16-2.34-0.47c-0.75-0.31-1.39-0.74-1.94-1.3c-0.55-0.55-0.98-1.19-1.3-1.91
	c-0.31-0.72-0.47-1.51-0.47-2.38c0-0.87,0.15-1.66,0.47-2.38c0.31-0.72,0.74-1.36,1.3-1.91c0.55-0.55,1.2-0.98,1.94-1.3
	c0.74-0.31,1.52-0.47,2.34-0.47c1.68,0,3.12,0.59,4.32,1.76c1.2,1.18,1.8,2.6,1.8,4.28s-0.6,3.11-1.8,4.28
	C435.44,15.41,434,15.99,432.32,15.99z M427.64,56.03V20.75h9.43v35.28H427.64z"/>
<path class="st0" d="M441.97,20.75h10.73l8.78,22.46h0.5l8.86-22.46h10.66l-15.19,35.28h-9.29L441.97,20.75z"/>
<path class="st0" d="M501.44,18.45c2.74,0,5.24,0.47,7.52,1.4c2.28,0.94,4.25,2.23,5.9,3.89c1.66,1.66,2.95,3.64,3.89,5.94
	s1.4,4.82,1.4,7.56s-0.47,5.26-1.4,7.56c-0.94,2.3-2.23,4.28-3.89,5.94c-1.66,1.66-3.62,2.95-5.9,3.89s-4.79,1.4-7.52,1.4
	c-2.74,0-5.24-0.47-7.52-1.4c-2.28-0.94-4.25-2.23-5.9-3.89c-1.66-1.66-2.95-3.64-3.89-5.94s-1.4-4.82-1.4-7.56s0.47-5.26,1.4-7.56
	s2.23-4.28,3.89-5.94s3.62-2.95,5.9-3.89C496.2,18.92,498.71,18.45,501.44,18.45z M501.44,47.33c1.2,0,2.36-0.23,3.49-0.68
	c1.13-0.46,2.12-1.12,2.99-1.98c0.86-0.86,1.55-1.92,2.05-3.17c0.5-1.25,0.76-2.66,0.76-4.25s-0.25-3-0.76-4.25
	c-0.5-1.25-1.19-2.3-2.05-3.17c-0.86-0.86-1.86-1.52-2.99-1.98s-2.29-0.68-3.49-0.68c-1.25,0-2.42,0.23-3.53,0.68
	c-1.1,0.46-2.09,1.12-2.95,1.98c-0.86,0.86-1.55,1.92-2.05,3.17c-0.5,1.25-0.76,2.66-0.76,4.25s0.25,3,0.76,4.25
	c0.5,1.25,1.19,2.3,2.05,3.17c0.86,0.86,1.85,1.52,2.95,1.98C499.02,47.1,500.19,47.33,501.44,47.33z"/>
</svg>
