<?xml version="1.0" encoding="utf-8"?>
<!-- Generator: Adobe Illustrator 27.8.1, SVG Export Plug-In . SVG Version: 6.00 Build 0)  -->
<svg version="1.1" id="Capa_1" xmlns="http://www.w3.org/2000/svg" xmlns:xlink="http://www.w3.org/1999/xlink" x="0px" y="0px"
	 viewBox="0 0 279 284" style="enable-background:new 0 0 279 284;" xml:space="preserve">
<style type="text/css">
	.st0{fill:#3F3B3B;}
	.st1{fill:#3F3B3B;stroke:#3F3B3B;stroke-miterlimit:10;}
</style>
<g>
	<g>
		<path class="st0" d="M171.54,153.8c0.04,3.27-1,5.59-2.92,7.52c-4.42,4.45-8.84,8.89-13.3,13.3c-1.79,1.77-3.96,1.93-5.41,0.51
			c-1.47-1.44-1.34-3.58,0.44-5.39c4.06-4.12,8.17-8.19,12.25-12.28c0.46-0.46,1.22-0.9,1.29-1.42c0.16-1.15,0.4-2.81-0.21-3.4
			c-0.64-0.62-2.28-0.4-3.42-0.2c-0.6,0.1-1.07,0.94-1.59,1.46c-12.32,12.32-24.62,24.67-36.98,36.96
			c-5.57,5.53-14.32,3.46-16.36-3.84c-1.09-3.89,0.13-7.16,2.96-9.98c8.72-8.67,17.4-17.38,26.09-26.08c0.4-0.4,0.8-0.81,1.21-1.21
			c1.39-1.34,2.12-2.89,0.51-4.43c-1.5-1.42-2.95-0.66-4.25,0.63c-9.03,9.05-18.03,18.14-27.19,27.05c-1.6,1.56-3.85,2.87-6.01,3.36
			c-4.28,0.96-8.27-1.32-10.13-5.08c-1.91-3.87-1.17-8.07,2.15-11.4c12.13-12.17,24.29-24.31,36.44-36.46
			c0.46-0.46,0.91-0.93,1.38-1.38c1.31-1.27,2.03-2.72,0.55-4.24c-1.46-1.5-2.94-0.93-4.23,0.42c-0.4,0.41-0.81,0.8-1.21,1.21
			c-3.86,3.86-7.71,7.73-11.58,11.57c-1.91,1.9-4.09,2.13-5.58,0.66c-1.51-1.5-1.29-3.6,0.64-5.55c4.3-4.33,8.61-8.67,12.96-12.95
			c4.2-4.13,10.06-4.24,13.96-0.33c3.88,3.9,3.76,9.77-0.41,13.96c-12.3,12.35-24.64,24.65-36.96,36.98
			c-0.57,0.57-1.47,1.13-1.58,1.8c-0.19,1.07-0.24,2.63,0.38,3.23c0.62,0.6,2.16,0.44,3.24,0.26c0.6-0.1,1.09-0.91,1.61-1.43
			c9-8.97,17.99-17.94,26.98-26.92c2.93-2.93,6.41-3.82,10.3-2.5c3.84,1.31,5.94,4.19,6.36,8.18c0.35,3.31-1.04,5.97-3.37,8.28
			c-8.78,8.72-17.52,17.49-26.27,26.25c-0.58,0.58-1.46,1.09-1.62,1.77c-0.26,1.12-0.47,2.61,0.06,3.47
			c0.84,1.35,2.37,1.2,3.62,0.16c0.56-0.46,1.06-1.01,1.58-1.53c12.32-12.32,24.62-24.67,36.98-36.96c5.53-5.5,14.29-3.26,16.3,4.07
			C171.43,152.68,171.49,153.49,171.54,153.8z"/>
		<path class="st0" d="M142.93,105.19c8.34-12.69,17.33-17.21,28.99-14.71c10.02,2.14,17.64,10.29,19.46,20.81
			c1.87,10.78-3.14,19.95-15.05,27.28c1.12,1.18,2.25,2.29,3.31,3.47c5.87,6.53,6.03,16.32,0.39,22.77
			c-1.82,2.08-3.86,2.53-5.51,1.24c-1.72-1.35-1.65-3.48,0.19-5.77c3.48-4.34,3.31-9.63-0.43-13.78c-0.44-0.48-0.94-0.91-1.36-1.4
			c-2.6-2.98-5.4-4.68-9.78-5.15c-12.91-1.39-21.67-11.82-21.96-24.87c-0.02-0.7-0.02-1.63-0.44-2.05
			c-2.47-2.47-4.84-5.12-7.65-7.14c-3.62-2.6-8.22-1.89-12.17,1.24c-2.02,1.6-4.05,1.58-5.38-0.06c-1.27-1.55-0.97-3.53,0.78-5.18
			c6.06-5.75,16.06-5.99,22.58-0.5C140.25,102.54,141.5,103.83,142.93,105.19z M184.66,115.2c0.02-10.16-8.17-18.38-18.28-18.36
			c-9.99,0.02-18.19,8.2-18.24,18.2c-0.05,10.1,8.21,18.36,18.33,18.34C176.52,133.35,184.64,125.24,184.66,115.2z"/>
		<path class="st0" d="M106.1,135.5c-0.06,2.26-3.53,5.57-5.73,5.48c-1.92-0.08-3.3-1.59-3.24-3.54c0.06-2.2,3.61-5.6,5.73-5.49
			C104.75,132.04,106.15,133.57,106.1,135.5z"/>
		<path class="st0" d="M149.57,178.96c-0.06,2.26-3.51,5.55-5.73,5.47c-1.94-0.08-3.3-1.55-3.25-3.52c0.06-2.23,3.56-5.58,5.73-5.48
			C148.23,175.51,149.61,177.02,149.57,178.96z"/>
		<path class="st0" d="M180.36,115.73c-0.34,1.2-0.67,3.23-1.5,5.04c-3.17,6.94-8.22,8.02-13.83,2.89
			c-2.99-2.73-5.86-5.65-8.44-8.77c-3.12-3.78-2.59-7.26,1.25-10.35c4.45-3.58,9.42-4.3,14.6-1.88
			C177.57,105.04,179.94,109.36,180.36,115.73z"/>
	</g>
	<g>
		<path class="st1" d="M17.8,158.44l-1.05-11.3l3.88-0.36l0.65,7.03l7.58-0.7l-0.51-5.52l3.88-0.36l0.51,5.52l11.85-1.1l0.4,4.27
			L17.8,158.44z"/>
		<path class="st1" d="M21.56,107.94l1.74-5.55l27.39,3.91l-1.28,4.09l-5.41-0.87l0.08,0.02l-1.46,4.65l4.87,2.34l-1.19,3.8
			L21.56,107.94z M40.38,108.93l-13.45-2.21l-0.02,0.07l12.32,5.82L40.38,108.93z"/>
		<path class="st1" d="M43.52,65.14l4.3-4.84c2.95-3.33,5.77-3.38,8.92-0.59l0.82,0.73c2.1,1.86,2.85,3.67,2.16,5.62l0.06,0.05
			c2.11-1.2,4.23-0.53,6.38,1.39l1.75,1.55c3.15,2.8,3.37,5.96,0.52,9.17l-4.48,5.05L43.52,65.14z M55.8,68.06
			c1.06-1.2,1.18-2.39-0.45-3.84l-1.14-1.01c-1.46-1.3-2.54-1.37-3.55-0.23l-1.37,1.55l5.4,4.79L55.8,68.06z M65.51,75.63
			c0.96-1.08,0.98-2.1-0.54-3.45l-1.78-1.58c-1.9-1.68-3.02-1.59-4.32-0.13l-1.27,1.43l6.27,5.57L65.51,75.63z"/>
		<path class="st1" d="M82.67,33.06l3.83-1.93l12.26,24.41l-3.83,1.93L82.67,33.06z"/>
		<path class="st1" d="M126.48,19.76l5.79-0.48l6.69,26.85l-4.28,0.35l-1.23-5.34l0.01,0.08l-4.86,0.4l-0.34,5.39l-3.96,0.33
			L126.48,19.76z M132.65,37.57l-3.02-13.29l-0.08,0.01l-0.75,13.61L132.65,37.57z"/>
		<path class="st1" d="M174.43,23.94l5.07,1.8l-1.53,16.8l0.07,0.03l5.46-15.41l3.6,1.28l-9.13,25.74l-4.16-1.47l1.81-20.51
			l-0.07-0.03l-6.67,18.79l-3.6-1.28L174.43,23.94z"/>
		<path class="st1" d="M227.21,89.61l13.02-6.76c3.74-1.94,6.96-1.15,8.87,2.52c1.91,3.67,0.7,6.76-3.04,8.7l-2.56,1.33l-1.87-3.6
			l2.81-1.46c1.59-0.83,1.85-1.93,1.26-3.07c-0.59-1.14-1.65-1.56-3.24-0.74l-13.54,7.03c-1.59,0.83-1.82,1.91-1.23,3.06
			c0.59,1.14,1.61,1.58,3.21,0.75l3.71-1.92l1.87,3.6l-3.43,1.78c-3.74,1.94-6.96,1.15-8.87-2.52
			C222.26,94.65,223.47,91.56,227.21,89.61z"/>
		<path class="st1" d="M261.84,128.25l0.38,6.35c0.27,4.44-1.68,6.47-5.89,6.72l-1.67,0.1c-2.8,0.17-4.65-0.62-5.54-2.48l-0.08,0
			c-0.53,2.18-2.52,3-5.59,3.19l-4.79,0.29c-1.32,0.08-2.3,0.18-3.28,0.66l-0.26-4.36c0.69-0.28,1.11-0.46,3.33-0.59l4.98-0.3
			c2.53-0.15,3.3-0.94,3.19-2.89l-0.09-1.48l-11.68,0.7l-0.26-4.28L261.84,128.25z M250.51,134.79c0.1,1.6,0.85,2.53,3.04,2.4
			l2.1-0.13c1.95-0.12,2.76-0.83,2.67-2.35l-0.12-1.95l-7.79,0.47L250.51,134.79z"/>
		<path class="st1" d="M256.75,179.24l-4.04,10.98l-3.66-1.35l2.56-6.96l-6.77-2.49l-2.04,5.53l-3.66-1.35l2.03-5.53l-7.87-2.9
			l-2.56,6.96l-3.66-1.35l4.04-10.98L256.75,179.24z"/>
		<path class="st1" d="M230.09,225.04l-4.04,4.18l-22.74-15.77l2.98-3.09l4.44,3.2l-0.06-0.05l3.39-3.51l-3.3-4.27l2.76-2.86
			L230.09,225.04z M213.7,215.73l11.04,8l0.05-0.06l-8.41-10.72L213.7,215.73z"/>
		<path class="st1" d="M188.8,250.21l4.12-1.78l1.55,3.58l-12.17,5.27l-1.55-3.58l4.12-1.78l-9.3-21.48l3.94-1.71L188.8,250.21z"/>
		<path class="st1" d="M145.97,264.58l-4.29,0.14l-0.92-27.29l4.29-0.14L145.97,264.58z"/>
		<path class="st1" d="M104.95,259.94l-4.08-1.45l4.45-20.9l-0.07-0.03l-9.75,19.02l-3.71-1.32l13.05-24.34l5.37,1.91L104.95,259.94
			z"/>
		<path class="st1" d="M74.18,220.42l-9.89,10.41c-3.01,3.17-6.4,3.39-9.46,0.49c-3.05-2.9-3-6.3,0.01-9.47l9.89-10.41
			c3.01-3.17,6.4-3.39,9.45-0.49C77.24,213.86,77.19,217.25,74.18,220.42z M68.03,214.2l-10.27,10.81
			c-1.34,1.42-1.23,2.54-0.24,3.48c0.99,0.94,2.12,0.99,3.47-0.42l10.27-10.81c1.34-1.42,1.23-2.54,0.24-3.48
			C70.51,212.84,69.37,212.79,68.03,214.2z"/>
	</g>
</g>
</svg>
