<svg width="20" height="40" viewBox="0 0 20 40" fill="none" xmlns="http://www.w3.org/2000/svg">
<path d="M10 5C8.67398 5 7.40213 5.52677 6.46446 6.46445C5.52678 7.40212 5 8.67396 5 9.99999C5 11.326 5.52678 12.5979 6.46446 13.5355C7.40213 14.4732 8.67398 15 10 15C11.3261 15 12.5979 14.4732 13.5356 13.5355C14.4733 12.5979 15.0001 11.326 15.0001 9.99999C14.9986 8.6744 14.4712 7.40355 13.5338 6.4662C12.5965 5.52886 11.3256 5.00143 10 5ZM10 13.5714C9.0528 13.5714 8.14446 13.1951 7.47467 12.5253C6.80487 11.8555 6.42858 10.9472 6.42858 9.99999C6.42858 9.05277 6.80486 8.14445 7.47467 7.47465C8.14447 6.80486 9.0528 6.42857 10 6.42857C10.9473 6.42857 11.8556 6.80485 12.5254 7.47465C13.1952 8.14445 13.5715 9.05277 13.5715 9.99999C13.5704 10.9469 13.1938 11.8546 12.5241 12.5241C11.8546 13.1937 10.9469 13.5703 10 13.5714Z" fill="#3F3B3B"/>
<path d="M10.0004 3.57141C10.1898 3.57141 10.3716 3.49616 10.5055 3.36223C10.6395 3.2283 10.7147 3.04654 10.7147 2.85713V0.714275C10.7147 0.459014 10.5786 0.223214 10.3576 0.0956632C10.1366 -0.0318877 9.86426 -0.0318877 9.64328 0.0956632C9.4223 0.223214 9.28613 0.459022 9.28613 0.714275V2.85713C9.28613 3.04654 9.36139 3.2283 9.49532 3.36223C9.62924 3.49616 9.81101 3.57141 10.0004 3.57141Z" fill="#3F3B3B"/>
<path d="M10.0004 16.4286C9.81101 16.4286 9.62924 16.5038 9.49532 16.6378C9.36139 16.7717 9.28613 16.9535 9.28613 17.1429V19.2857C9.28613 19.541 9.42229 19.7768 9.64328 19.9043C9.86426 20.0319 10.1366 20.0319 10.3576 19.9043C10.5785 19.7768 10.7147 19.541 10.7147 19.2857V17.1429C10.7147 16.9535 10.6395 16.7717 10.5055 16.6378C10.3716 16.5038 10.1898 16.4286 10.0004 16.4286Z" fill="#3F3B3B"/>
<path d="M15.0501 5.66371C15.2395 5.66371 15.4211 5.58845 15.555 5.45437L17.0708 3.93939C17.2513 3.7589 17.3219 3.49568 17.2557 3.24902C17.1897 3.00253 16.997 2.80976 16.7505 2.74376C16.5038 2.67759 16.2406 2.74822 16.0601 2.92871L14.5451 4.4445C14.4112 4.57843 14.3359 4.76003 14.3359 4.94944C14.3359 5.13885 14.4112 5.32045 14.5451 5.45438C14.679 5.58847 14.8607 5.66372 15.0501 5.66372L15.0501 5.66371Z" fill="#3F3B3B"/>
<path d="M4.44487 14.5457L2.92907 16.0607C2.79498 16.1946 2.71973 16.3765 2.71973 16.5659C2.71973 16.7555 2.79498 16.9373 2.92907 17.0714C3.06316 17.2055 3.24492 17.2807 3.4345 17.2807C3.62391 17.2807 3.80584 17.2055 3.93977 17.0714L5.45476 15.5564C5.59267 15.4233 5.67112 15.2404 5.67287 15.0487C5.67447 14.8572 5.59921 14.6729 5.46369 14.5376C5.32816 14.4021 5.14401 14.3266 4.95238 14.3284C4.76073 14.33 4.57785 14.4086 4.44487 14.5464L4.44487 14.5457Z" fill="#3F3B3B"/>
<path d="M15.5552 14.5457C15.4222 14.4077 15.2393 14.3293 15.0477 14.3275C14.856 14.3259 14.6719 14.4012 14.5364 14.5367C14.4008 14.6722 14.3256 14.8564 14.3272 15.048C14.3289 15.2397 14.4074 15.4226 14.5453 15.5555L16.0603 17.0713C16.2408 17.2518 16.504 17.3224 16.7506 17.2563C16.9971 17.1903 17.1899 16.9975 17.2559 16.751C17.3221 16.5044 17.2514 16.2411 17.071 16.0606L15.5552 14.5457Z" fill="#3F3B3B"/>
<path d="M4.44487 5.45437C4.62616 5.6296 4.88667 5.69624 5.12982 5.62944C5.37312 5.56279 5.56316 5.37274 5.62982 5.12944C5.69662 4.8863 5.62998 4.62577 5.45475 4.4445L3.93976 2.92871C3.75928 2.74822 3.49605 2.67759 3.24939 2.74376C3.0029 2.80977 2.81013 3.00253 2.74413 3.24902C2.67796 3.49568 2.74859 3.7589 2.92907 3.93939L4.44487 5.45437Z" fill="#3F3B3B"/>
<path d="M3.57144 9.99999C3.57144 9.81058 3.49618 9.62882 3.36225 9.49489C3.22832 9.36096 3.04656 9.28571 2.85715 9.28571H0.714279C0.459017 9.28571 0.223215 9.42186 0.0956638 9.64285C-0.0318879 9.86383 -0.0318879 10.1362 0.0956638 10.3571C0.223215 10.5781 0.459025 10.7143 0.714279 10.7143H2.85715C3.04656 10.7143 3.22832 10.639 3.36225 10.5051C3.49618 10.3712 3.57144 10.1894 3.57144 9.99999Z" fill="#3F3B3B"/>
<path d="M19.2859 9.28571H17.143C16.8877 9.28571 16.6519 9.42186 16.5244 9.64285C16.3968 9.86383 16.3968 10.1362 16.5244 10.3571C16.6519 10.5781 16.8877 10.7143 17.143 10.7143H19.2859C19.5411 10.7143 19.7769 10.5781 19.9045 10.3571C20.032 10.1361 20.032 9.86383 19.9045 9.64285C19.7769 9.42187 19.5411 9.28571 19.2859 9.28571Z" fill="#3F3B3B"/>
<path d="M8.40525 22.9701C7.47567 24.4931 6.94005 26.2885 6.94005 28.209C6.94005 32.586 9.71994 36.3109 13.5976 37.6641C13.0487 37.7892 12.4777 37.8562 11.889 37.8562C7.60404 37.8562 4.12475 34.3412 4.12475 29.9955C4.12475 26.9183 5.86882 24.2608 8.40968 22.9701H8.40525ZM11.1541 20.0223C6.03261 20.402 2 24.7209 2 29.9955C2 35.5203 6.42657 40 11.8934 40C14.0093 40 15.9658 39.3301 17.5771 38.1867C17.6612 38.1286 17.7409 38.0661 17.8206 38.008C18.033 37.8473 18.2367 37.6775 18.4359 37.4989C18.5554 37.3917 18.6705 37.2845 18.7856 37.1728C19.0069 36.954 19.0644 36.6146 18.9228 36.3377C18.7811 36.0607 18.4757 35.9044 18.1703 35.958C18.0065 35.9848 17.8427 36.0116 17.6789 36.0295C17.4576 36.0518 17.2318 36.0697 17.0016 36.0741C16.9485 36.0741 16.891 36.0741 16.8379 36.0741C16.8334 36.0741 16.829 36.0741 16.8246 36.0741C12.5397 36.0652 9.06923 32.5502 9.06923 28.2135C9.06923 25.766 10.1714 23.582 11.9067 22.1393C11.9509 22.0992 11.9996 22.0634 12.0483 22.0232C12.2254 21.8803 12.4113 21.7463 12.6016 21.6213C12.7389 21.5319 12.8805 21.4426 13.0266 21.3622C13.2966 21.2059 13.4338 20.8933 13.3674 20.5895C13.301 20.2858 13.0443 20.0581 12.7344 20.0313C12.5751 20.0179 12.4201 20.0089 12.2608 20.0045C12.1413 20 12.0173 20 11.8978 20C11.7517 20 11.6101 20.0045 11.464 20.0089C11.3622 20.0134 11.2604 20.0179 11.1586 20.0268L11.1541 20.0223Z" fill="white"/>
</svg>
